<svg id="Capa_1" enable-background="new 0 0 497 497" height="512" viewBox="0 0 497 497" width="512" xmlns="http://www.w3.org/2000/svg"><g><g><path d="m396.976 0h-296.952c-16.569 0-30 17.431-30 34v70.281l178.976 70 177.976-70v-70.281c0-16.569-13.432-34-30-34z" fill="#53a3ec"/><path d="m168.8 74.281v-40.281c0-16.568 13.432-34 30-34h-98.775c-16.569 0-30 17.432-30 34v70.281h128.775c-16.569 0-30-13.432-30-30z" fill="#4293dd"/></g><g><path d="m417.3 497h-337.6c-16.569 0-30-13.431-30-30v-248.5h397.6v248.5c0 16.569-13.432 30-30 30z" fill="#ff8f71"/><path d="m198.8 462.3v-243.8h-149.1v248.5c0 16.569 13.431 30 30 30h153.8c-19.164 0-34.7-15.536-34.7-34.7z" fill="#ff6f4d"/></g><g><g><path d="m90.024 100c-18.416 0-35.268 10.356-43.587 26.787l-41.045 81.064c-3.545 7.001-5.392 14.738-5.392 22.586v21.363c0 27.448 22.251 49.7 49.7 49.7 26.084 0 49.7-20.445 49.7-50.919l49.7-32.081-9.7-118.5c-26.715 0-45.536 0-49.376 0z" fill="#d34459"/><path d="m298.2 218.5-49.7-20-49.7 20v33.3c0 27.448 22.251 49.7 49.7 49.7 26.084 0 49.7-20.445 49.7-50.919z" fill="#d34459"/><path d="m491.608 207.851-41.045-81.064c-8.319-16.431-25.171-26.787-43.587-26.787-10.8 0-251.173 0-267.576 0l-40 118.5h298.2l49.7 83 49.7-71.063c0-7.848-1.847-15.585-5.392-22.586z" fill="#ea5b70"/></g><g fill="#eff2f8"><path d="m139.4 100-40 118.5 49.7 40.3 49.7-40.3 20-118.5z"/><path d="m357.6 100h-79.4l20 118.5c0 2.155 49.7 40.3 49.7 40.3l49.7-40.3z"/></g><path d="m198.8 218.5h-99.4v33.3c0 27.448 22.251 49.7 49.7 49.7 26.084 0 49.7-20.445 49.7-50.919z" fill="#d7deed"/><path d="m397.6 218.5h-99.4v33.3c0 27.448 22.251 49.7 49.7 49.7 27.448 0 49.7-22.251 49.7-49.7z" fill="#d7deed"/><path d="m397.6 218.5v33.3c0 27.448 22.251 49.7 49.7 49.7s49.7-22.251 49.7-49.7v-21.363c0-4.037-.498-8.043-1.455-11.937z" fill="#d34459"/></g><g><path d="m321.943 329.096h-146.886c-16.569 0-30 13.431-30 30v137.904h88.443 30 88.443v-137.904c0-16.569-13.432-30-30-30z" fill="#eff2f8"/><path d="m198.8 462.3v-133.204h-23.743c-16.569 0-30 13.431-30 30v137.904h88.443c-19.164 0-34.7-15.536-34.7-34.7z" fill="#d7deed"/><path d="m263.5 359.096h58.442v137.904h-58.442z" fill="#7ce3ff"/><g><path d="m175.058 359.096h58.442v137.904h-58.442z" fill="#7ce3ff"/><path d="m198.8 462.3v-103.204h-23.742v137.904h58.442c-19.164 0-34.7-15.536-34.7-34.7z" fill="#2ed0fc"/></g></g><g><path d="m411.943 329.096c-16.568 0-30 13.432-30 30v47.904c0 16.568 13.432 30 30 30h35.357v-107.904z" fill="#7ce3ff"/><path d="m85.057 329.096h-35.357v107.904h35.357c16.568 0 30-13.432 30-30v-47.904c0-16.569-13.431-30-30-30z" fill="#2ed0fc"/></g><g fill="#eff2f8"><path d="m150.67 27.502v44.995c0 4.143-3.358 7.5-7.499 7.5-4.142 0-7.5-3.356-7.5-7.5v-26.819l-9.681 9.735c-1.407 1.415-3.321 2.211-5.317 2.211s-3.909-.796-5.316-2.211l-9.681-9.735v26.818c0 4.143-3.359 7.5-7.5 7.5s-7.498-3.356-7.498-7.5v-44.994c0-3.036 1.831-5.773 4.639-6.932 2.806-1.157 6.035-.509 8.177 1.644l17.18 17.276 17.182-17.275c2.142-2.154 5.37-2.804 8.177-1.644 2.806 1.159 4.637 3.895 4.637 6.931z"/><path d="m202.118 79.518c-.868.326-1.758.479-2.633.479-3.035 0-5.893-1.856-7.021-4.867l-.988-2.634h-17.728l-.987 2.634c-1.455 3.877-5.776 5.839-9.655 4.388-3.877-1.453-5.844-5.775-4.388-9.655l16.872-44.995c1.098-2.926 3.896-4.865 7.021-4.865s5.924 1.938 7.021 4.865l16.872 44.995c1.455 3.88-.51 8.202-4.386 9.655zm-16.268-22.019-3.239-8.639-3.239 8.639z"/><path d="m256.808 67.218c2.915 2.94 2.896 7.689-.044 10.605-1.464 1.449-3.373 2.174-5.281 2.174-1.93 0-3.859-.74-5.325-2.219l-12.673-12.779h-3.999v7.498c0 4.143-3.358 7.5-7.499 7.5-4.142 0-7.499-3.356-7.499-7.5v-44.994c0-4.142 3.357-7.498 7.499-7.498h14.625c12.335 0 22.371 10.093 22.371 22.497 0 7.318-3.495 13.829-8.894 17.941zm-12.825-24.717c0-4.136-3.308-7.5-7.372-7.5h-7.126v14.998h7.126c4.065 0 7.372-3.363 7.372-7.498z"/><path d="m306.377 68.524c2.148 3.541 1.021 8.153-2.521 10.301-1.216.737-2.558 1.088-3.883 1.088-2.534 0-5.007-1.284-6.418-3.609l-11.83-19.501-.256.263v15.431c0 4.143-3.359 7.5-7.5 7.5s-7.498-3.356-7.498-7.5v-44.995c0-4.142 3.357-7.498 7.498-7.498s7.5 3.356 7.5 7.498v8.146l13.145-13.396c2.899-2.956 7.649-3.001 10.605-.101 2.956 2.899 3.001 7.647.102 10.604l-12.757 13z"/><path d="m353.075 72.496c0 4.143-3.356 7.5-7.499 7.5h-22.997c-4.141 0-7.498-3.356-7.498-7.5v-44.994c0-4.142 3.357-7.498 7.498-7.498h22.997c4.143 0 7.499 3.356 7.499 7.498 0 4.143-3.356 7.5-7.499 7.5h-15.497v7.5h9.498c4.142 0 7.498 3.356 7.498 7.499s-3.356 7.5-7.498 7.5h-9.498v7.499h15.497c4.143-.002 7.499 3.354 7.499 7.496z"/><path d="m406.322 27.502c0 4.143-3.357 7.5-7.499 7.5h-9.499v37.495c0 4.143-3.357 7.5-7.499 7.5s-7.499-3.356-7.499-7.5v-37.496h-9.498c-4.143 0-7.5-3.356-7.5-7.5 0-4.142 3.357-7.498 7.5-7.498h33.995c4.142.001 7.499 3.357 7.499 7.499z"/></g><g fill="#ff8e9e"><ellipse cx="164.943" cy="180.36" rx="29.355" ry="23.377"/><ellipse cx="332.057" cy="180.36" rx="29.355" ry="23.377"/></g><g fill="#313d40"><path d="m186.051 142.356c-4.142 0-7.5 3.358-7.5 7.5v12c0 4.142 3.358 7.5 7.5 7.5s7.5-3.358 7.5-7.5v-12c0-4.142-3.358-7.5-7.5-7.5z"/><path d="m310.949 142.356c-4.142 0-7.5 3.358-7.5 7.5v12c0 4.142 3.358 7.5 7.5 7.5s7.5-3.358 7.5-7.5v-12c0-4.142-3.358-7.5-7.5-7.5z"/><path d="m269.892 155.846c-3.122-2.722-7.86-2.397-10.582.726-2.73 3.132-6.67 4.928-10.811 4.928s-8.081-1.796-10.811-4.928c-2.722-3.123-7.459-3.448-10.582-.726s-3.448 7.459-.726 10.582c5.579 6.401 13.641 10.073 22.118 10.073s16.539-3.671 22.118-10.073c2.724-3.123 2.399-7.861-.724-10.582z"/></g></g></svg>